# xmcd
#
# Track frame offsets: 
#        183
#        14860
#        41570
#
# Disc length: 887 seconds
#
# Revision: 0
# Processed by: cddbd v1.5.2PL0 Copyright (c) Steve Scherf et al.
# Submitted via: ExactAudioCopy v1.0b1
#
DISCID=22037503
DTITLE=49ers - Don't You Love Me CDM
DYEAR=1990
DGENRE=House
TTITLE0=Don't You Love Me (Radio Mix)
TTITLE1=Don't You Love Me (90's Mix)
TTITLE2=Don't You Love Me (Hip House Mix)
EXTD=
EXTT0=
EXTT1=
EXTT2=
PLAYORDER=
